HIERARCHY
ROOT Hips
{
 OFFSET 0.000000 0.000000 0.000000
 CHANNELS 6 Xposition Yposition Zposition Yrotation Xrotation Zrotation
 JOINT Chest
 {
  OFFSET 0.000000 9.585900 0.002600
  CHANNELS 3 Yrotation Xrotation Zrotation
  JOINT Chest2
  {
   OFFSET 0.000000 9.601200 -0.005300
   CHANNELS 3 Yrotation Xrotation Zrotation
   JOINT Chest3
   {
    OFFSET 0.000000 9.561800 0.000000
    CHANNELS 3 Yrotation Xrotation Zrotation
    JOINT Chest4
    {
     OFFSET 0.000000 9.552100 0.000000
     CHANNELS 3 Yrotation Xrotation Zrotation
     JOINT Neck
     {
      OFFSET 0.000000 14.453000 0.000000
      CHANNELS 3 Yrotation Xrotation Zrotation
      JOINT Head
      {
       OFFSET 0.000000 8.936500 -0.011300
       CHANNELS 3 Yrotation Xrotation Zrotation
       End Site
       {
        OFFSET 0.000000 17.073600 -0.006000
       }
      }
     }
     JOINT RightCollar
     {
      OFFSET -2.921100 9.558500 0.000000
      CHANNELS 3 Yrotation Xrotation Zrotation
      JOINT RightShoulder
      {
       OFFSET -13.519700 0.000000 0.000000
       CHANNELS 3 Yrotation Xrotation Zrotation
       JOINT RightElbow
       {
        OFFSET 0.000000 -29.696600 0.000000
        CHANNELS 3 Yrotation Xrotation Zrotation
        JOINT RightWrist
        {
         OFFSET 0.000000 -24.004700 0.000000
         CHANNELS 3 Yrotation Xrotation Zrotation
         End Site
         {
          OFFSET 0.000000 -17.728500 0.000000
         }
        }
       }
      }
     }
     JOINT LeftCollar
     {
      OFFSET 2.921100 9.558500 0.000000
      CHANNELS 3 Yrotation Xrotation Zrotation
      JOINT LeftShoulder
      {
       OFFSET 13.519700 0.000000 0.000000
       CHANNELS 3 Yrotation Xrotation Zrotation
       JOINT LeftElbow
       {
        OFFSET 0.000000 -29.696600 0.000000
        CHANNELS 3 Yrotation Xrotation Zrotation
        JOINT LeftWrist
        {
         OFFSET 0.000000 -24.004700 0.000000
         CHANNELS 3 Yrotation Xrotation Zrotation
         End Site
         {
          OFFSET 0.000000 -17.728500 0.000000
         }
        }
       }
      }
     }
    }
   }
  }
 }
 JOINT RightHip
 {
  OFFSET -7.771700 -0.012900 -0.001300
  CHANNELS 3 Yrotation Xrotation Zrotation
  JOINT RightKnee
  {
   OFFSET 0.000000 -40.869800 0.001200
   CHANNELS 3 Yrotation Xrotation Zrotation
   JOINT RightAnkle
   {
    OFFSET 0.000000 -39.717900 0.002100
    CHANNELS 3 Yrotation Xrotation Zrotation
    JOINT RightToe
    {
     OFFSET 0.000000 -4.965400 11.033500
     CHANNELS 3 Yrotation Xrotation Zrotation
     End Site
     {
      OFFSET 0.000000 -1.423100 5.872300
     }
    }
   }
  }
 }
 JOINT LeftHip
 {
  OFFSET 7.771700 -0.012900 -0.001300
  CHANNELS 3 Yrotation Xrotation Zrotation
  JOINT LeftKnee
  {
   OFFSET 0.000000 -40.869800 0.001200
   CHANNELS 3 Yrotation Xrotation Zrotation
   JOINT LeftAnkle
   {
    OFFSET 0.000000 -39.717900 0.002100
    CHANNELS 3 Yrotation Xrotation Zrotation
    JOINT LeftToe
    {
     OFFSET 0.000000 -4.965400 11.033500
     CHANNELS 3 Yrotation Xrotation Zrotation
     End Site
     {
      OFFSET 0.000000 -1.423100 5.872300
     }
    }
   }
  }
 }
}
MOTION
Frames: 15
Frame Time: 0.008333
0.000000 85.388000 0.000000 0.000000 -5.767877 0.000000 0.000000 11.653817 0.000000 0.000000 -5.885947 0.000000 0.000000 -0.000000 0.000000 0.000000 -0.000000 0.000000 0.000000 12.528835 0.000000 0.000000 0.711642 0.000000 0.000000 -0.000000 0.000000 0.000000 0.000000 -90.000000 0.000000 -2.309062 0.000000 0.000000 2.309062 0.000000 0.000000 -0.000000 0.000000 0.000000 -0.000000 90.000000 0.000000 -2.309062 0.000000 0.000000 2.309062 0.000000 0.000000 8.520406 0.000000 0.000000 1.905762 0.000000 -0.000000 -4.658285 0.000000 0.000000 -0.000000 0.000000 0.000000 8.520406 0.000000 0.000000 1.905762 0.000000 -0.000000 -4.658285 0.000000 0.000000 -0.000000 0.000000
-45.114008 55.228202 45.622642 -177.930860 -33.357785 -10.915800 0.194388 15.655389 6.034097 -0.162463 8.905787 2.170803 -0.149166 11.151017 2.732167 -0.194644 8.865327 2.201060 1.990973 15.575419 -3.514596 2.916990 -9.290756 -4.184785 0.895029 2.159223 -2.578576 -14.658389 -9.561499 5.642466 29.585197 -74.259413 -16.648436 10.414829 -11.005869 -12.296113 -9.576786 4.421182 -3.041025 9.419278 -3.019705 -1.772378 -73.718096 -82.377740 77.724787 13.824912 -15.143286 3.825822 -16.625836 -33.103621 3.195109 33.455262 86.963742 29.223892 0.475875 -17.833670 2.926481 -0.068844 0.455942 -0.031161 -15.287860 -44.992049 13.974024 165.953784 79.371892 161.080962 -0.611359 -15.048236 1.280816 -1.294705 -3.042279 -0.580991
-45.112922 55.226142 45.620992 -177.926026 -33.290657 -10.903558 0.172841 15.597667 6.023296 -0.186723 8.888274 2.184054 -0.152516 11.128578 2.724826 -0.216008 8.846070 2.196228 1.994000 15.521614 -3.585044 2.937570 -9.345214 -4.261947 0.934631 2.178536 -2.582752 -14.704580 -9.571386 5.659117 29.514742 -74.222122 -16.562209 10.442143 -11.002650 -12.275536 -9.527939 4.374316 -3.094444 9.426056 -2.982181 -1.738847 -74.219218 -82.348514 78.252578 13.850812 -15.154802 3.809736 -16.646840 -33.173122 3.201995 33.688767 86.971685 29.457477 0.472547 -17.848469 2.924828 -0.069255 0.459752 -0.032287 -15.306616 -45.056224 13.986712 165.983097 79.374426 161.101877 -0.620782 -15.064242 1.294220 -1.288816 -3.024611 -0.578471
-45.111286 55.226108 45.616194 -177.925176 -33.237240 -10.890380 0.156160 15.552920 6.012261 -0.211247 8.874991 2.189269 -0.159532 11.104115 2.719630 -0.237540 8.824390 2.195730 1.991402 15.464313 -3.657689 2.952665 -9.403365 -4.340222 0.976779 2.171901 -2.573809 -14.737647 -9.556838 5.658486 29.498177 -74.181319 -16.541943 10.442746 -11.003501 -12.264318 -9.482395 4.332324 -3.150111 9.478690 -3.071999 -1.701512 -73.874506 -82.272083 77.899749 13.872459 -15.173441 3.798254 -16.663165 -33.227170 3.206787 33.886774 86.981760 29.653852 0.473652 -17.865011 2.920973 -0.080562 0.460950 -0.031967 -15.313895 -45.106373 13.992431 166.005760 79.375339 161.119318 -0.627944 -15.073595 1.308321 -1.285117 -3.017743 -0.581059
-45.109611 55.226942 45.610241 -177.922015 -33.185955 -10.877409 0.120040 15.537774 6.010229 -0.217168 8.835482 2.176610 -0.208118 11.053763 2.721390 -0.226623 8.826410 2.180916 1.982133 15.409680 -3.728423 2.960167 -9.458940 -4.414892 1.018153 2.181543 -2.567710 -14.765980 -9.550623 5.666392 29.441776 -74.132813 -16.514397 10.457291 -11.024045 -12.286551 -9.436472 4.343556 -3.192597 9.508146 -3.145436 -1.675773 -73.939893 -82.199875 77.989669 13.887193 -15.195665 3.791853 -16.676902 -33.277122 3.212894 34.041892 86.989661 29.806287 0.463138 -17.883603 2.921503 -0.056922 0.463535 -0.030661 -15.318352 -45.154333 13.995665 166.021142 79.375443 161.130647 -0.637554 -15.079204 1.316989 -1.281388 -3.014562 -0.577715
-45.107819 55.229566 45.602124 -177.916255 -33.148055 -10.866712 0.098542 15.508954 5.998397 -0.237974 8.817161 2.174752 -0.226684 11.027919 2.718696 -0.241664 8.799638 2.173905 1.966171 15.365856 -3.792192 2.958775 -9.503536 -4.480433 1.055896 2.194382 -2.559563 -14.794294 -9.538034 5.676562 29.450118 -74.078502 -16.513118 10.456500 -11.042739 -12.307523 -9.415006 4.299857 -3.250619 9.552288 -3.129240 -1.619580 -74.198753 -82.117967 78.292074 13.894353 -15.219198 3.791709 -16.685213 -33.311454 3.215954 34.077236 87.002148 29.839642 0.453737 -17.901025 2.923022 -0.069707 0.460107 -0.028256 -15.317003 -45.186155 13.994683 166.029114 79.375856 161.135353 -0.651372 -15.085560 1.324097 -1.275428 -3.012903 -0.572565
-45.106696 55.232417 45.594209 -177.905161 -33.108453 -10.855495 0.071200 15.478454 5.981985 -0.245365 8.804215 2.171598 -0.257143 10.986393 2.713571 -0.255851 8.774999 2.169374 1.980525 15.388879 -3.824566 2.914275 -9.568878 -4.553000 1.085592 2.208753 -2.549739 -14.817635 -9.517392 5.686867 29.410567 -74.026345 -16.458702 10.449479 -11.054427 -12.330795 -9.414369 4.262469 -3.307039 9.611320 -3.102333 -1.562268 -74.476603 -82.021367 78.622868 13.902992 -15.243577 3.797090 -16.697030 -33.347511 3.217193 34.202200 87.011937 29.957530 0.444056 -17.916995 2.926723 -0.072698 0.459029 -0.025717 -15.317670 -45.218577 13.988186 166.047649 79.379566 161.152686 -0.667157 -15.094009 1.326239 -1.262390 -3.007629 -0.564579
-45.105104 55.231652 45.592912 -177.903876 -33.025440 -10.841932 0.037736 15.406987 5.966711 -0.245965 8.787671 2.167970 -0.298199 10.927116 2.705483 -0.246427 8.783793 2.164695 1.924738 15.345371 -3.886498 2.916229 -9.538616 -4.591710 1.110738 2.194948 -2.542511 -14.847310 -9.482924 5.699543 29.310109 -73.976341 -16.342975 10.437606 -11.049478 -12.350064 -9.434026 4.222941 -3.352549 9.672328 -3.046015 -1.516198 -74.965624 -81.925252 79.170128 13.920033 -15.269590 3.810371 -16.719757 -33.432079 3.235909 34.209006 87.026153 29.961954 0.445962 -17.927082 2.926001 -0.075773 0.457471 -0.024480 -15.327250 -45.292568 14.011680 166.120096 79.392850 161.223328 -0.706476 -15.123795 1.331642 -1.229078 -2.975250 -0.549312
-45.104206 55.232943 45.589324 -177.897474 -32.962311 -10.829818 -0.007895 15.352768 5.945345 -0.274770 8.735248 2.156915 -0.269420 10.947753 2.703232 -0.282097 8.728678 2.157282 1.881327 15.352409 -3.942113 2.918414 -9.489680 -4.625908 1.140791 2.121200 -2.539314 -14.856981 -9.371168 5.699467 29.158707 -73.923187 -16.180503 10.462653 -11.050119 -12.349761 -9.450102 4.196901 -3.397009 9.742136 -2.975836 -1.469552 -75.368893 -81.845267 79.628137 13.942479 -15.293501 3.832035 -16.739656 -33.493743 3.246935 34.247370 87.037611 29.990799 0.456874 -17.939245 2.927835 -0.070217 0.454767 -0.026328 -15.333167 -45.350737 14.018590 166.124748 79.397788 161.226097 -0.728560 -15.132834 1.341058 -1.217497 -2.965986 -0.545100
-45.102709 55.236242 45.583971 -177.893032 -32.917981 -10.823852 -0.034678 15.315999 5.931383 -0.289906 8.709605 2.150385 -0.299783 10.901168 2.692150 -0.300850 8.696201 2.149202 1.873286 15.412723 -3.984862 2.906568 -9.448405 -4.667983 1.189804 2.092986 -2.540759 -14.860378 -9.293753 5.716026 28.947295 -73.863073 -15.969783 10.437831 -11.002488 -12.355126 -9.455743 4.179913 -3.438365 9.810796 -2.918868 -1.419586 -75.481153 -81.797242 79.794332 13.975874 -15.269726 3.827999 -16.752716 -33.531866 3.260248 34.216003 87.044455 29.947993 0.473589 -17.952094 2.932374 -0.071602 0.454631 -0.027365 -15.333012 -45.390861 14.030319 166.069922 79.393745 161.163912 -0.746932 -15.131798 1.359728 -1.230090 -2.972185 -0.545881
-45.101921 55.239188 45.580060 -177.884899 -32.868531 -10.819249 -0.059640 15.271650 5.918776 -0.313296 8.687271 2.141880 -0.318455 10.870232 2.683527 -0.318383 8.672437 2.143318 1.857216 15.449650 -4.031641 2.900934 -9.407583 -4.715307 1.224987 2.051294 -2.545064 -14.842600 -9.240761 5.740245 28.668989 -73.796869 -15.711582 10.413818 -10.932303 -12.343130 -9.470672 4.131603 -3.472078 9.874150 -2.854790 -1.373171 -75.481841 -81.790037 79.843134 13.988495 -15.285643 3.885706 -16.759304 -33.575473 3.268633 34.115172 87.052596 29.850248 0.470538 -17.963385 2.938638 -0.064251 0.456080 -0.027346 -15.338621 -45.433912 14.036793 166.068889 79.398246 161.162671 -0.756899 -15.138535 1.365973 -1.224443 -2.966276 -0.542407
-45.105052 55.239792 45.579610 -177.859983 -32.796548 -10.803946 -0.108737 15.206752 5.885004 -0.329412 8.671626 2.136314 -0.307727 10.872377 2.684026 -0.373064 8.608854 2.134089 1.846717 15.479344 -4.081993 2.902149 -9.374044 -4.768020 1.251307 2.002490 -2.551424 -14.801853 -9.195387 5.764168 28.427019 -73.718714 -15.496325 10.382033 -10.861135 -12.316084 -9.481286 4.080351 -3.504929 9.930715 -2.800356 -1.327913 -75.314464 -81.818460 79.713123 14.012932 -15.267256 3.949817 -16.778682 -33.647778 3.260522 34.123504 87.063825 29.857897 0.461397 -17.975836 2.946426 -0.071385 0.458064 -0.025816 -15.356844 -45.502987 14.021638 166.065971 79.400770 161.159453 -0.778332 -15.162315 1.360146 -1.202130 -2.941757 -0.528921
-45.104808 55.243384 45.576633 -177.851863 -32.755109 -10.806261 -0.137846 15.174394 5.875078 -0.322441 8.661489 2.138053 -0.352897 10.828294 2.672403 -0.390744 8.582211 2.126092 1.841607 15.498036 -4.133624 2.909423 -9.352041 -4.823434 1.268205 1.953588 -2.557116 -14.752751 -9.163819 5.784905 28.325164 -73.620292 -15.403824 10.306218 -10.788320 -12.287106 -9.489637 4.031270 -3.534898 9.947818 -2.815615 -1.278840 -74.594636 -81.872052 79.051333 14.033429 -15.205448 3.999756 -16.785849 -33.680923 3.273591 34.111342 87.065144 29.846153 0.459065 -17.983209 2.950374 -0.086031 0.457719 -0.023506 -15.362339 -45.535867 14.038714 166.065219 79.406126 161.155960 -0.798934 -15.172808 1.369799 -1.188748 -2.932922 -0.523737
-45.106117 55.246429 45.574861 -177.841488 -32.712025 -10.806439 -0.170809 15.136481 5.858154 -0.339257 8.637490 2.131646 -0.374235 10.798373 2.663945 -0.407054 8.561835 2.123696 1.840502 15.503753 -4.185250 2.921056 -9.343807 -4.879792 1.277058 1.908360 -2.560330 -14.707069 -9.150743 5.799141 27.978256 -73.538228 -15.072122 10.347598 -10.749373 -12.258321 -9.495227 3.987743 -3.559316 9.975132 -2.818428 -1.239514 -73.979555 -81.963263 78.468735 14.049230 -15.117818 4.045404 -16.800368 -33.717172 3.292999 34.258918 87.061605 29.979350 0.440658 -17.987987 2.963552 -0.073902 0.455046 -0.024852 -15.359305 -45.563156 14.064612 166.188568 79.427135 161.271402 -0.851325 -15.207455 1.384052 -1.149692 -2.898981 -0.503384
-45.108582 55.249847 45.572809 -177.837179 -32.679482 -10.803305 -0.197804 15.104238 5.843217 -0.391347 8.594048 2.113285 -0.402781 10.757657 2.654100 -0.386330 8.581571 2.119973 1.842810 15.497895 -4.235775 2.936101 -9.347805 -4.935794 1.282559 1.869277 -2.561969 -14.669306 -9.155978 5.808156 27.562926 -73.488659 -14.684112 10.378798 -10.690490 -12.179034 -9.494564 3.950247 -3.577903 10.003853 -2.818105 -1.208553 -73.415417 -82.083201 77.919394 14.061465 -15.017698 4.091584 -16.805036 -33.745862 3.297594 34.312639 87.061068 30.032502 0.432051 -17.991078 2.967601 -0.075494 0.453580 -0.025390 -15.367373 -45.591246 14.084640 166.235017 79.430658 161.293309 -0.845583 -15.201017 1.411628 -1.170660 -2.907452 -0.506947
